<svg xmlns="http://www.w3.org/2000/svg" viewBox="0 0 320 320"><path d="M120 60 Q112 28 132 20 M150 56 Q150 24 170 18 M196 62 Q200 30 220 28" fill="none" stroke="#5a3d2b" stroke-width="10" stroke-linecap="round"/><ellipse cx="128" cy="26" rx="16" ry="10" fill="#6a994e" stroke="#1a1a1a" stroke-width="5" stroke-linecap="round" stroke-linejoin="round" transform="rotate(-30 128 26)"/><ellipse cx="214" cy="30" rx="16" ry="10" fill="#6a994e" stroke="#1a1a1a" stroke-width="5" stroke-linecap="round" stroke-linejoin="round" transform="rotate(25 214 30)"/><path d="M100 80 Q160 52 220 80 Q252 130 240 200 Q228 262 160 272 Q92 262 80 200 Q68 130 100 80 Z" fill="#8b5e3c" stroke="#1a1a1a" stroke-width="9" stroke-linecap="round" stroke-linejoin="round"/><path d="M112 110 Q120 150 108 190 M208 110 Q200 150 212 190 M160 96 L160 128" fill="none" stroke="#5a3d2b" stroke-width="7" stroke-linecap="round"/><circle cx="132" cy="170" r="12" fill="#1a1a1a"/><circle cx="188" cy="170" r="12" fill="#1a1a1a"/><path d="M136 224 Q160 238 184 224" fill="none" stroke="#1a1a1a" stroke-width="9" stroke-linecap="round" stroke-linejoin="round"/></svg>